<?xml version="1.0" standalone="no"?>
<!DOCTYPE svg PUBLIC "-//W3C//DTD SVG 20010904//EN"
 "http://www.w3.org/TR/2001/REC-SVG-20010904/DTD/svg10.dtd">
<svg version="1.0" xmlns="http://www.w3.org/2000/svg"
 width="601.000000pt" height="601.000000pt" viewBox="0 0 601.000000 601.000000"
 preserveAspectRatio="xMidYMid meet">

<g transform="translate(0.000000,601.000000) scale(0.100000,-0.100000)"
fill="#000000" stroke="none">
<path d="M4416 4550 c-95 -159 -117 -186 -186 -222 -65 -33 -185 -33 -255 1
-56 28 -104 30 -141 6 -22 -14 -39 -38 -110 -152 l-14 -22 -57 34 c-31 19 -59
33 -61 31 -6 -6 166 -281 206 -329 86 -106 161 -262 188 -396 12 -64 15 -117
12 -220 -5 -117 -10 -149 -36 -231 -30 -92 -129 -281 -150 -288 -6 -2 -167 90
-357 203 -279 166 -345 210 -340 223 3 9 114 198 246 419 131 222 239 407 239
411 0 4 -22 29 -48 55 l-48 48 -259 -436 c-142 -239 -261 -435 -265 -435 -5 0
-122 68 -261 151 -140 83 -292 173 -339 200 l-85 49 205 -200 205 -201 415
-248 c228 -136 459 -274 513 -306 54 -32 99 -61 101 -64 5 -8 -277 -480 -327
-548 -20 -28 -66 -78 -101 -110 -300 -282 -761 -320 -1104 -93 -66 43 52 -78
813 -840 722 -722 894 -889 910 -884 75 21 262 96 380 153 846 406 1451 1182
1639 2101 39 195 56 373 56 600 l0 205 -748 741 -748 742 -88 -148z"/>
</g>
</svg>
